{"title":"Green Zone TS XViD - IMAGiNE","uid":5483166,"size":1480077669,"categoryP":"video","categoryS":"movies","magnet":"?xt=urn:btih:53d22cd26d1cadec8a4022a964901983c735ae7a&amp;dn=Green+Zone+TS+XViD+-+IMAGiNE&amp;tr=udp%3A%2F%2Ftracker.openbittorrent.com%3A80&amp;tr=udp%3A%2F%2Fopen.demonii.com%3A1337&amp;tr=udp%3A%2F%2Ftracker.coppersurfer.tk%3A6969&amp;tr=udp%3A%2F%2Fexodus.desync.com%3A6969","seeders":0,"leechers":0,"uploader":"Texworld","files":101,"time":1270559135,"description":"Green Zone TS XViD - IMAGiNE\n********************************************************************************************************************\n\nRipper ...........: IMAGiNE                                        IMDB Rating.......:7.4/10                             \nVideo Codec.......: XViD                                         Release Date......:18/03/10\nAudio Codec.......:MP3                                           Theatre Date......:12/03/10\nAudio Bitrate.....:128                                              Runtime.......:1h 45mn\nSubtitles.........:ENG WHEN NEEDED                 Language..........:ENGLISH\nResolution...... 704 x 288                                      IMDb URL..........:http://www.imdb.com/title/tt0947810/\n\n\n\n\n\nVideo\nID                               : 0\nFormat                           : MPEG-4 Visual\nFormat profile                   : Advanced Simple@L5\nFormat settings, BVOP            : Yes\nFormat settings, QPel            : No\nFormat settings, GMC             : No warppoints\nFormat settings, Matrix          : Default (MPEG)\nMuxing mode                      : Packed bitstream\nCodec ID                         : XVID\nCodec ID/Hint                    : XviD\nDuration                         : 1h 45mn\nBit rate                         : 1 707 Kbps\nWidth                            : 704 pixels\nHeight                           : 288 pixels\nDisplay aspect ratio             : 2.444\nFrame rate                       : 23.976 fps\nResolution                       : 24 bits\nColorimetry                      : 4:2:0\nScan type                        : Progressive\nBits/(Pixel*Frame)               : 0.351\nStream size                      : 1.26 GiB (93%)\nWriting library                  : XviD 1.2.1 (UTC 2008-12-04)\n\nAudio\nID                               : 1\nFormat                           : MPEG Audio\nFormat version                   : Version 1\nFormat profile                   : Layer 3\nCodec ID                         : 55\nCodec ID/Hint                    : MP3\nDuration                         : 1h 45mn\nBit rate mode                    : Constant\nBit rate                         : 128 Kbps\nChannel(s)                       : 2 channels\nSampling rate                    : 48.0 KHz\nResolution                       : 16 bits\nStream size                      : 96.5 MiB (7%)\nAlignment                        : Split accross interleaves\nInterleave, duration             : 42 ms (1.00 video frame)\nInterleave, preload duration     : 500 ms","torrent":{"xt":"urn:btih:53d22cd26d1cadec8a4022a964901983c735ae7a","amp;dn":"Green+Zone+TS+XViD+-+IMAGiNE","amp;tr":["udp%3A%2F%2Ftracker.openbittorrent.com%3A80","udp%3A%2F%2Fopen.demonii.com%3A1337","udp%3A%2F%2Ftracker.coppersurfer.tk%3A6969","udp%3A%2F%2Fexodus.desync.com%3A6969"],"infoHash":"53d22cd26d1cadec8a4022a964901983c735ae7a","infoHashBuffer":{"type":"Buffer","data":[83,210,44,210,109,28,173,236,138,64,34,169,100,144,25,131,199,53,174,122]},"announce":[],"urlList":[]}}